<svg width="26" height="30" viewBox="0 0 26 30" fill="none" xmlns="http://www.w3.org/2000/svg">
<path d="M18.5714 15.7143C14.6286 15.7143 11.4286 18.9143 11.4286 22.8571C11.4286 26.8 14.6286 30 18.5714 30C22.5143 30 25.7143 26.8 25.7143 22.8571C25.7143 18.9143 22.5143 15.7143 18.5714 15.7143ZM20.9286 26.2143L17.8571 23.1429V18.5714H19.2857V22.5571L21.9286 25.2L20.9286 26.2143ZM22.8571 2.85714H15.4571C14.8571 1.2 13.2857 0 11.4286 0C9.57143 0 8 1.2 7.4 2.85714H0V30H11.5857C10.7405 29.1796 10.053 28.2113 9.55714 27.1429H2.85714V5.71429H5.71429V10H17.1429V5.71429H20V12.9714C21.0143 13.1143 21.9714 13.4143 22.8571 13.8286V2.85714ZM11.4286 5.71429C10.6429 5.71429 10 5.07143 10 4.28571C10 3.5 10.6429 2.85714 11.4286 2.85714C12.2143 2.85714 12.8571 3.5 12.8571 4.28571C12.8571 5.07143 12.2143 5.71429 11.4286 5.71429Z" fill="#4756CB"/>
</svg>
