<svg width="25" height="25" viewBox="0 0 25 25" fill="none" xmlns="http://www.w3.org/2000/svg">
<path d="M12.5 6.25C11.8125 6.25 11.25 6.8125 11.25 7.5V11.25H7.5C6.8125 11.25 6.25 11.8125 6.25 12.5C6.25 13.1875 6.8125 13.75 7.5 13.75H11.25V17.5C11.25 18.1875 11.8125 18.75 12.5 18.75C13.1875 18.75 13.75 18.1875 13.75 17.5V13.75H17.5C18.1875 13.75 18.75 13.1875 18.75 12.5C18.75 11.8125 18.1875 11.25 17.5 11.25H13.75V7.5C13.75 6.8125 13.1875 6.25 12.5 6.25ZM12.5 0C5.6 0 0 5.6 0 12.5C0 19.4 5.6 25 12.5 25C19.4 25 25 19.4 25 12.5C25 5.6 19.4 0 12.5 0ZM12.5 22.5C6.9875 22.5 2.5 18.0125 2.5 12.5C2.5 6.9875 6.9875 2.5 12.5 2.5C18.0125 2.5 22.5 6.9875 22.5 12.5C22.5 18.0125 18.0125 22.5 12.5 22.5Z" fill="#878787"/>
</svg>
