<svg width="17" height="16" viewBox="0 0 17 16" fill="none" xmlns="http://www.w3.org/2000/svg">
<path d="M16.2133 5.63406L11.1905 4.90408L8.94521 0.352135C8.88388 0.227506 8.78299 0.126615 8.65836 0.0652895C8.3458 -0.0890138 7.96597 0.0395723 7.80969 0.352135L5.56438 4.90408L0.541613 5.63406C0.403136 5.65384 0.276528 5.71912 0.179594 5.81803C0.062406 5.93848 -0.00216996 6.10053 5.56796e-05 6.26856C0.00228131 6.4366 0.0711264 6.59688 0.191463 6.71418L3.8255 10.2572L2.96694 15.2602C2.94681 15.3766 2.95969 15.4963 3.00412 15.6057C3.04855 15.7151 3.12275 15.8099 3.21832 15.8793C3.31388 15.9488 3.42698 15.99 3.54479 15.9984C3.6626 16.0068 3.78041 15.982 3.88485 15.9269L8.37745 13.5648L12.87 15.9269C12.9927 15.9922 13.1351 16.0139 13.2716 15.9902C13.6158 15.9308 13.8473 15.6044 13.788 15.2602L12.9294 10.2572L16.5634 6.71418C16.6623 6.61724 16.7276 6.49064 16.7474 6.35216C16.8008 6.00597 16.5595 5.68549 16.2133 5.63406Z" fill="#FF9900"/>
</svg>
