<svg width="29" height="30" viewBox="0 0 29 30" fill="none" xmlns="http://www.w3.org/2000/svg">
<path d="M19.8293 30L14.6341 24.8049L16.6829 22.7561L19.7927 25.8659L26.0122 19.6463L28.061 21.7317L19.8293 30ZM6.43902 21.9512L4.39024 19.9024L6.73171 17.561L4.39024 15.2195L6.43902 13.1707L8.78049 15.5122L11.122 13.1707L13.1707 15.2195L10.8293 17.561L13.1707 19.9024L11.122 21.9512L8.78049 19.6098L6.43902 21.9512ZM2.92683 29.2683C2.12195 29.2683 1.43268 28.982 0.859024 28.4093C0.286341 27.8356 0 27.1463 0 26.3415V5.85366C0 5.04878 0.286341 4.36 0.859024 3.78732C1.43268 3.21366 2.12195 2.92683 2.92683 2.92683H4.39024V0H7.31707V2.92683H19.0244V0H21.9512V2.92683H23.4146C24.2195 2.92683 24.9088 3.21366 25.4824 3.78732C26.0551 4.36 26.3415 5.04878 26.3415 5.85366V15.1463L23.4146 18.1098V11.7073H2.92683V26.3415H12.0732L14.9634 29.2683H2.92683Z" fill="#4756CB"/>
</svg>
