<svg width="30" height="30" viewBox="0 0 30 30" fill="none" xmlns="http://www.w3.org/2000/svg">
<path d="M15 0C16.377 0 17.7051 0.175781 18.9844 0.527344C20.2637 0.878906 21.4551 1.38672 22.5586 2.05078C23.6621 2.71484 24.6729 3.49609 25.5908 4.39453C26.5088 5.29297 27.2949 6.30371 27.9492 7.42676C28.6035 8.5498 29.1064 9.74609 29.458 11.0156C29.8096 12.2852 29.9902 13.6133 30 15C30 16.377 29.8242 17.7051 29.4727 18.9844C29.1211 20.2637 28.6133 21.4551 27.9492 22.5586C27.2852 23.6621 26.5039 24.6729 25.6055 25.5908C24.707 26.5088 23.6963 27.2949 22.5732 27.9492C21.4502 28.6035 20.2539 29.1064 18.9844 29.458C17.7148 29.8096 16.3867 29.9902 15 30C13.623 30 12.2949 29.8242 11.0156 29.4727C9.73633 29.1211 8.54492 28.6133 7.44141 27.9492C6.33789 27.2852 5.32715 26.5039 4.40918 25.6055C3.49121 24.707 2.70508 23.6963 2.05078 22.5732C1.39648 21.4502 0.893555 20.2539 0.541992 18.9844C0.19043 17.7148 0.00976562 16.3867 0 15C0 13.623 0.175781 12.2949 0.527344 11.0156C0.878906 9.73633 1.38672 8.54492 2.05078 7.44141C2.71484 6.33789 3.49609 5.32715 4.39453 4.40918C5.29297 3.49121 6.30371 2.70508 7.42676 2.05078C8.5498 1.39648 9.74609 0.893555 11.0156 0.541992C12.2852 0.19043 13.6133 0.00976562 15 0ZM23.833 10.0342L21.8408 8.04199L12.1875 17.6953L8.15918 13.667L6.16699 15.6592L12.1875 21.6797L23.833 10.0342Z" fill="#4756CB"/>
</svg>
