<svg width="17" height="14" viewBox="0 0 17 14" fill="none" xmlns="http://www.w3.org/2000/svg">
<path d="M0 10.7375V13.2153H6.60767V11.6543H1.56932V10.7375C1.56932 10.2088 4.15457 9.00295 6.60767 9.00295C7.40059 9.01121 8.18525 9.11858 8.94513 9.31681L10.2006 8.06136C9.04425 7.67316 7.84661 7.45841 6.60767 7.43363C4.40236 7.43363 0 8.53215 0 10.7375ZM6.60767 0C4.7823 0 3.30383 1.47847 3.30383 3.30383C3.30383 5.1292 4.7823 6.60767 6.60767 6.60767C8.43304 6.60767 9.9115 5.1292 9.9115 3.30383C9.9115 1.47847 8.43304 0 6.60767 0ZM6.60767 4.95575C5.69911 4.95575 4.95575 4.22065 4.95575 3.30383C4.95575 2.38702 5.69911 1.65192 6.60767 1.65192C7.51622 1.65192 8.25959 2.39528 8.25959 3.30383C8.25959 4.21239 7.52448 4.95575 6.60767 4.95575ZM16.2714 7.72271L15.4454 8.54867L13.7522 6.89676L14.5782 6.0708C14.6631 5.98756 14.7773 5.94094 14.8962 5.94094C15.0151 5.94094 15.1292 5.98756 15.2142 6.0708L16.2714 7.12802C16.4448 7.30147 16.4448 7.59056 16.2714 7.76401M8.25959 12.3398L13.2649 7.33451L14.9581 8.98643L10.0024 14H8.25959V12.3398Z" fill="white"/>
</svg>
