<svg width="30" height="30" viewBox="0 0 30 30" fill="none" xmlns="http://www.w3.org/2000/svg">
<path d="M16.4497 0V3.03455C23.0446 3.84577 27.7166 9.83976 26.9054 16.4347C26.2143 21.9029 21.9179 26.2444 16.4497 26.8903V29.8948C24.7121 29.0686 30.7211 21.7376 29.8948 13.4752C29.2188 6.33951 23.5553 0.706059 16.4497 0ZM13.4452 0.0450676C10.5158 0.330496 7.72158 1.45719 5.43816 3.35003L7.58638 5.57336C9.2689 4.22133 11.2969 3.35003 13.4452 3.04957V0.0450676ZM3.31998 5.4682C1.44165 7.74764 0.285732 10.5354 0 13.4752H3.00451C3.28994 11.342 4.1312 9.31397 5.4682 7.61642L3.31998 5.4682ZM0.0150225 16.4797C0.315473 19.4241 1.47221 22.2033 3.335 24.4867L5.4682 22.3385C4.14161 20.6404 3.29588 18.6168 3.01953 16.4797H0.0150225ZM7.58638 24.5468L5.43816 26.6049C7.71374 28.5018 10.4997 29.6831 13.4452 30V26.9955C11.3081 26.7191 9.28453 25.8734 7.58638 24.5468ZM15.6985 7.4662V15.353L22.4587 19.364L21.332 21.2118L13.4452 16.4797V7.4662H15.6985Z" fill="#121E7E"/>
</svg>
