<svg width="103" height="103" viewBox="0 0 103 103" fill="none" xmlns="http://www.w3.org/2000/svg">
<circle cx="51.5" cy="51.5" r="51.5" fill="#F0F0F0"/>
<path d="M60.3333 56.1667C63.0176 56.1668 65.5983 57.2032 67.537 59.0597C69.4758 60.9162 70.6231 63.4495 70.7396 66.1313L70.75 66.5833V68.6667C70.7503 69.7179 70.3533 70.7303 69.6385 71.5011C68.9238 72.2719 67.9441 72.7441 66.8958 72.8229L66.5833 72.8333H37.4167C36.3655 72.8337 35.353 72.4367 34.5822 71.7219C33.8114 71.0071 33.3393 70.0274 33.2604 68.9792L33.25 68.6667V66.5833C33.2502 63.899 34.2865 61.3184 36.143 59.3796C37.9995 57.4408 40.5328 56.2936 43.2146 56.1771L43.6667 56.1667H60.3333ZM52 31.1667C54.7627 31.1667 57.4122 32.2641 59.3657 34.2176C61.3192 36.1711 62.4167 38.8207 62.4167 41.5833C62.4167 44.346 61.3192 46.9955 59.3657 48.949C57.4122 50.9025 54.7627 52 52 52C49.2373 52 46.5878 50.9025 44.6343 48.949C42.6808 46.9955 41.5833 44.346 41.5833 41.5833C41.5833 38.8207 42.6808 36.1711 44.6343 34.2176C46.5878 32.2641 49.2373 31.1667 52 31.1667Z" fill="#BFBFBF"/>
</svg>
